<svg xmlns="http://www.w3.org/2000/svg" width="37" height="37" viewBox="0 0 37 37" fill="none">
    <g clip-path="url(#clip0_6_53)">
        <path d="M20.8125 2.3125C20.8125 1.0334 19.7791 0 18.5 0C17.2209 0 16.1875 1.0334 16.1875 2.3125V19.8514L10.8832 14.5471C9.97988 13.6438 8.51289 13.6438 7.60957 14.5471C6.70625 15.4504 6.70625 16.9174 7.60957 17.8207L16.8596 27.0707C17.7629 27.974 19.2299 27.974 20.1332 27.0707L29.3832 17.8207C30.2865 16.9174 30.2865 15.4504 29.3832 14.5471C28.4799 13.6438 27.0129 13.6438 26.1096 14.5471L20.8125 19.8514V2.3125ZM4.625 25.4375C2.07402 25.4375 0 27.5115 0 30.0625V32.375C0 34.926 2.07402 37 4.625 37H32.375C34.926 37 37 34.926 37 32.375V30.0625C37 27.5115 34.926 25.4375 32.375 25.4375H25.04L21.7664 28.7111C19.9598 30.5178 17.033 30.5178 15.2264 28.7111L11.96 25.4375H4.625ZM31.2188 29.4844C31.6787 29.4844 32.1199 29.6671 32.4451 29.9924C32.7704 30.3176 32.9531 30.7588 32.9531 31.2188C32.9531 31.6787 32.7704 32.1199 32.4451 32.4451C32.1199 32.7704 31.6787 32.9531 31.2188 32.9531C30.7588 32.9531 30.3176 32.7704 29.9924 32.4451C29.6671 32.1199 29.4844 31.6787 29.4844 31.2188C29.4844 30.7588 29.6671 30.3176 29.9924 29.9924C30.3176 29.6671 30.7588 29.4844 31.2188 29.4844Z" fill="white"/>
    </g>
    <defs>
        <clipPath id="clip0_6_53">
            <rect width="37" height="37" fill="white"/>
        </clipPath>
    </defs>
</svg>