<svg width="55" height="38" viewBox="0 0 55 38" fill="none" xmlns="http://www.w3.org/2000/svg">
<path d="M0 2C0 0.89543 0.89543 0 2 0H53C54.1046 0 55 0.895431 55 2V8C55 9.10457 54.1046 10 53 10H2C0.895432 10 0 9.10457 0 8V2Z" fill="#E22A2A"/>
<path d="M0 16C0 14.8954 0.89543 14 2 14H53C54.1046 14 55 14.8954 55 16V22C55 23.1046 54.1046 24 53 24H2C0.895432 24 0 23.1046 0 22V16Z" fill="#E22A2A"/>
<path d="M0 30C0 28.8954 0.89543 28 2 28H53C54.1046 28 55 28.8954 55 30V36C55 37.1046 54.1046 38 53 38H2C0.895432 38 0 37.1046 0 36V30Z" fill="#E22A2A"/>
</svg>
