<svg width="204" height="74" viewBox="0 0 204 74" fill="none" xmlns="http://www.w3.org/2000/svg">
<path d="M81.9908 26.6364H86.8132L91.4567 35.4062H91.6555L96.299 26.6364H101.121L93.6939 39.8011V47H89.4183V39.8011L81.9908 26.6364ZM120.956 36.8182C120.956 39.0388 120.535 40.928 119.693 42.4858C118.858 44.0436 117.717 45.2334 116.272 46.0554C114.834 46.8707 113.217 47.2784 111.42 47.2784C109.61 47.2784 107.986 46.8674 106.548 46.0455C105.109 45.2235 103.973 44.0336 103.137 42.4759C102.302 40.9181 101.885 39.0322 101.885 36.8182C101.885 34.5975 102.302 32.7083 103.137 31.1506C103.973 29.5928 105.109 28.4062 106.548 27.5909C107.986 26.7689 109.61 26.358 111.42 26.358C113.217 26.358 114.834 26.7689 116.272 27.5909C117.717 28.4062 118.858 29.5928 119.693 31.1506C120.535 32.7083 120.956 34.5975 120.956 36.8182ZM116.591 36.8182C116.591 35.3797 116.375 34.1667 115.944 33.179C115.52 32.1913 114.92 31.4422 114.145 30.9318C113.369 30.4214 112.461 30.1662 111.42 30.1662C110.379 30.1662 109.471 30.4214 108.696 30.9318C107.92 31.4422 107.317 32.1913 106.886 33.179C106.462 34.1667 106.25 35.3797 106.25 36.8182C106.25 38.2566 106.462 39.4697 106.886 40.4574C107.317 41.4451 107.92 42.1941 108.696 42.7045C109.471 43.215 110.379 43.4702 111.42 43.4702C112.461 43.4702 113.369 43.215 114.145 42.7045C114.92 42.1941 115.52 41.4451 115.944 40.4574C116.375 39.4697 116.591 38.2566 116.591 36.8182ZM136.723 26.6364H141.028V39.8608C141.028 41.3456 140.674 42.6449 139.964 43.7585C139.262 44.8722 138.277 45.7405 137.011 46.3636C135.745 46.9801 134.27 47.2884 132.587 47.2884C130.896 47.2884 129.418 46.9801 128.152 46.3636C126.886 45.7405 125.902 44.8722 125.199 43.7585C124.496 42.6449 124.145 41.3456 124.145 39.8608V26.6364H128.45V39.4929C128.45 40.2685 128.619 40.9579 128.957 41.5611C129.302 42.1643 129.786 42.6383 130.409 42.983C131.032 43.3277 131.758 43.5 132.587 43.5C133.422 43.5 134.148 43.3277 134.764 42.983C135.387 42.6383 135.868 42.1643 136.206 41.5611C136.551 40.9579 136.723 40.2685 136.723 39.4929V26.6364ZM143.795 30.1861V26.6364H160.52V30.1861H154.285V47H150.029V30.1861H143.795ZM167.579 26.6364V47H163.274V26.6364H167.579ZM171.121 47V26.6364H175.427V43.4503H184.157V47H171.121ZM198.055 32.4929C197.975 31.6908 197.634 31.0677 197.031 30.6236C196.428 30.1794 195.609 29.9574 194.575 29.9574C193.872 29.9574 193.279 30.0568 192.795 30.2557C192.311 30.4479 191.94 30.7164 191.681 31.0611C191.43 31.4058 191.304 31.7969 191.304 32.2344C191.29 32.599 191.367 32.9171 191.532 33.1889C191.705 33.4607 191.94 33.696 192.238 33.8949C192.537 34.0871 192.881 34.2562 193.272 34.402C193.663 34.5412 194.081 34.6605 194.525 34.7599L196.355 35.1974C197.243 35.3963 198.058 35.6615 198.801 35.9929C199.543 36.3243 200.186 36.732 200.73 37.2159C201.273 37.6998 201.694 38.2699 201.993 38.9261C202.297 39.5824 202.453 40.3348 202.46 41.1832C202.453 42.4295 202.135 43.5099 201.505 44.4247C200.882 45.3329 199.981 46.0388 198.801 46.5426C197.627 47.0398 196.212 47.2884 194.555 47.2884C192.911 47.2884 191.479 47.0365 190.26 46.5327C189.047 46.0289 188.099 45.2831 187.416 44.2955C186.74 43.3011 186.385 42.0715 186.352 40.6065H190.518C190.565 41.2893 190.76 41.8594 191.105 42.3168C191.456 42.7675 191.923 43.1089 192.507 43.3409C193.097 43.5663 193.763 43.679 194.505 43.679C195.234 43.679 195.868 43.5729 196.404 43.3608C196.948 43.1487 197.369 42.8537 197.667 42.4759C197.966 42.098 198.115 41.6638 198.115 41.1733C198.115 40.7159 197.979 40.3314 197.707 40.0199C197.442 39.7083 197.051 39.4432 196.534 39.2244C196.023 39.0057 195.397 38.8068 194.654 38.6278L192.437 38.071C190.72 37.6534 189.365 37.0005 188.37 36.1122C187.376 35.224 186.882 34.0275 186.889 32.5227C186.882 31.2898 187.21 30.2126 187.873 29.2912C188.543 28.3698 189.461 27.6506 190.627 27.1335C191.794 26.6165 193.12 26.358 194.605 26.358C196.116 26.358 197.435 26.6165 198.562 27.1335C199.696 27.6506 200.577 28.3698 201.207 29.2912C201.837 30.2126 202.162 31.2798 202.181 32.4929H198.055Z" fill="black"/>
<path d="M36.247 2.61186C37.7903 1.14767 40.2097 1.14767 41.753 2.61186L74.9413 34.0981C76.6039 35.6755 76.6039 38.3245 74.9413 39.9019L41.753 71.3881C40.2097 72.8523 37.7903 72.8523 36.247 71.3881L3.05872 39.9019C1.39611 38.3245 1.3961 35.6755 3.05871 34.0981L36.247 2.61186Z" fill="#E22A2A"/>
<path d="M50.3745 34.9052C52.3671 36.0613 52.3671 38.9387 50.3745 40.0948L36.2172 48.3092C34.2172 49.4696 31.7117 48.0266 31.7117 45.7143L31.7117 29.2857C31.7117 26.9734 34.2172 25.5304 36.2172 26.6908L50.3745 34.9052Z" fill="white"/>
</svg>
