<svg width="78" height="74" viewBox="0 0 78 74" fill="none" xmlns="http://www.w3.org/2000/svg">
<path d="M36.247 2.61186C37.7903 1.14767 40.2097 1.14767 41.753 2.61186L74.9413 34.0981C76.6039 35.6755 76.6039 38.3245 74.9413 39.9019L41.753 71.3881C40.2097 72.8523 37.7903 72.8523 36.247 71.3881L3.05872 39.9019C1.39611 38.3245 1.3961 35.6755 3.05871 34.0981L36.247 2.61186Z" fill="#E22A2A"/>
<path d="M50.3745 34.9052C52.3671 36.0613 52.3671 38.9387 50.3745 40.0948L36.2172 48.3092C34.2172 49.4696 31.7117 48.0266 31.7117 45.7143L31.7117 29.2857C31.7117 26.9734 34.2172 25.5304 36.2172 26.6908L50.3745 34.9052Z" fill="white"/>
</svg>
